Start = 10.000000, duration = 60, magnitude = 500.000000, direction = 180
datacolumns 10
datarows 220
range 19.58000085 19.68031954
endheader
time	ground_force1_vx	ground_force1_vy	ground_force1_vz	ground_force1_px	ground_force1_py	ground_force1_pz	ground_torque1_x	ground_torque1_y	ground_torque1_z
19.58000085	-416.522655	5.100931362e-14	0	0	0	0	0	0	0
19.5800017	-416.5222403	5.100926284e-14	0	0	0	0	0	0	0
19.58000594	-416.520172	5.100900955e-14	0	0	0	0	0	0	0
19.58002714	-416.5098302	5.100774303e-14	0	0	0	0	0	0	0
19.58013315	-416.4581073	5.100140881e-14	0	0	0	0	0	0	0
19.5803537	-416.3504531	5.098822497e-14	0	0	0	0	0	0	0
19.58063396	-416.2135625	5.097146071e-14	0	0	0	0	0	0	0
19.58100739	-416.0310059	5.094910397e-14	0	0	0	0	0	0	0
19.58145807	-415.8104442	5.092209296e-14	0	0	0	0	0	0	0
19.58204115	-415.5246966	5.088709897e-14	0	0	0	0	0	0	0
19.58276511	-415.1692971	5.084357508e-14	0	0	0	0	0	0	0
19.58348906	-414.8132257	5.079996891e-14	0	0	0	0	0	0	0
19.58428434	-414.4212917	5.075197084e-14	0	0	0	0	0	0	0
19.58507963	-414.0285376	5.070387233e-14	0	0	0	0	0	0	0
19.58579014	-413.6769632	5.066081688e-14	0	0	0	0	0	0	0
19.58650065	-413.3247393	5.06176819e-14	0	0	0	0	0	0	0
19.58721115	-412.9718714	5.057446805e-14	0	0	0	0	0	0	0
19.58792166	-412.6183502	5.053117419e-14	0	0	0	0	0	0	0
19.58863217	-412.2641812	5.048780099e-14	0	0	0	0	0	0	0
19.58935592	-411.9027469	5.044353805e-14	0	0	0	0	0	0	0
19.59	-411.5805348	5.040407845e-14	0	0	0	0	0	0	0
19.59000047	-411.5802994	5.040404963e-14	0	0	0	0	0	0	0
19.59000094	-411.5800641	5.040402081e-14	0	0	0	0	0	0	0
19.59000331	-411.5788775	5.040387549e-14	0	0	0	0	0	0	0
19.59001512	-411.5729643	5.040315134e-14	0	0	0	0	0	0	0
19.59007416	-411.5434008	5.039953085e-14	0	0	0	0	0	0	0
19.59032849	-411.4159975	5.038392844e-14	0	0	0	0	0	0	0
19.59066067	-411.2494715	5.036353489e-14	0	0	0	0	0	0	0
19.59106393	-411.0471225	5.033875429e-14	0	0	0	0	0	0	0
19.59155389	-410.8009893	5.030861167e-14	0	0	0	0	0	0	0
19.59214607	-410.5030961	5.027213027e-14	0	0	0	0	0	0	0
19.59273825	-410.2047552	5.023559405e-14	0	0	0	0	0	0	0
19.59358161	-409.7790974	5.0183466e-14	0	0	0	0	0	0	0
19.59427602	-409.4279366	5.01404612e-14	0	0	0	0	0	0	0
19.59497042	-409.0761668	5.009738183e-14	0	0	0	0	0	0	0
19.59566482	-408.7237836	5.005422733e-14	0	0	0	0	0	0	0
19.59635923	-408.3707823	5.001099714e-14	0	0	0	0	0	0	0
19.59705363	-408.0171737	4.996769258e-14	0	0	0	0	0	0	0
19.59774803	-407.6629532	4.992431308e-14	0	0	0	0	0	0	0
19.59821853	-407.4225989	4.989487816e-14	0	0	0	0	0	0	0
19.59876059	-407.1453405	4.98609238e-14	0	0	0	0	0	0	0
19.59930265	-406.86771	4.982692387e-14	0	0	0	0	0	0	0
19.6	-406.5099968	4.978311664e-14	0	0	0	0	0	0	0
19.60000095	-406.5095091	4.978305691e-14	0	0	0	0	0	0	0
19.60000189	-406.5090265	4.978299781e-14	0	0	0	0	0	0	0
19.60000662	-406.5065981	4.978270042e-14	0	0	0	0	0	0	0
19.60003025	-406.4944659	4.978121465e-14	0	0	0	0	0	0	0
19.60014842	-406.4337838	4.977378324e-14	0	0	0	0	0	0	0
19.60073928	-406.1301038	4.973659317e-14	0	0	0	0	0	0	0
19.60153097	-405.7225135	4.968667775e-14	0	0	0	0	0	0	0
19.60223131	-405.3612941	4.964244114e-14	0	0	0	0	0	0	0
19.60293166	-404.9994512	4.959812816e-14	0	0	0	0	0	0	0
19.60363201	-404.6369905	4.955373952e-14	0	0	0	0	0	0	0
19.6042491	-404.3171088	4.951456531e-14	0	0	0	0	0	0	0
19.60486619	-403.9967482	4.947533246e-14	0	0	0	0	0	0	0
19.60548329	-403.675904	4.943604037e-14	0	0	0	0	0	0	0
19.60610038	-403.3545868	4.939669037e-14	0	0	0	0	0	0	0
19.60650074	-403.1458649	4.937112931e-14	0	0	0	0	0	0	0
19.6069011	-402.936942	4.934554363e-14	0	0	0	0	0	0	0
19.60768783	-402.5258116	4.929519468e-14	0	0	0	0	0	0	0
19.60847456	-402.1139064	4.924475084e-14	0	0	0	0	0	0	0
19.60917082	-401.7487225	4.920002871e-14	0	0	0	0	0	0	0
19.60986708	-401.3829329	4.91552324e-14	0	0	0	0	0	0	0
19.61	-401.3130328	4.914667211e-14	0	0	0	0	0	0	0
19.61000087	-401.3125752	4.914661607e-14	0	0	0	0	0	0	0
19.61000175	-401.3121124	4.914655939e-14	0	0	0	0	0	0	0
19.61000611	-401.3098191	4.914627855e-14	0	0	0	0	0	0	0
19.61002792	-401.2983474	4.914487366e-14	0	0	0	0	0	0	0
19.61013698	-401.2409745	4.913784751e-14	0	0	0	0	0	0	0
19.61052155	-401.0385465	4.911305723e-14	0	0	0	0	0	0	0
19.61113559	-400.7149488	4.907342794e-14	0	0	0	0	0	0	0
19.61188724	-400.3181913	4.902483916e-14	0	0	0	0	0	0	0
19.6126389	-399.9207251	4.897616359e-14	0	0	0	0	0	0	0
19.61329743	-399.5719271	4.893344815e-14	0	0	0	0	0	0	0
19.61395597	-399.2225848	4.889066607e-14	0	0	0	0	0	0	0
19.61461451	-398.8727041	4.884781804e-14	0	0	0	0	0	0	0
19.61527305	-398.5222854	4.880490412e-14	0	0	0	0	0	0	0
19.61593159	-398.1713292	4.876192438e-14	0	0	0	0	0	0	0
19.61659013	-397.8198359	4.871887887e-14	0	0	0	0	0	0	0
19.61705278	-397.5725773	4.868859842e-14	0	0	0	0	0	0	0
19.61751542	-397.3250593	4.865828621e-14	0	0	0	0	0	0	0
19.61797807	-397.0772715	4.862794095e-14	0	0	0	0	0	0	0
19.61881231	-396.6297982	4.857314128e-14	0	0	0	0	0	0	0
19.61931748	-396.3584155	4.853990648e-14	0	0	0	0	0	0	0
19.62	-395.9912589	4.849494277e-14	0	0	0	0	0	0	0
19.62000098	-395.9907313	4.849487816e-14	0	0	0	0	0	0	0
19.62000195	-395.9902091	4.849481421e-14	0	0	0	0	0	0	0
19.62000683	-395.9875819	4.849449246e-14	0	0	0	0	0	0	0
19.62003121	-395.974456	4.849288501e-14	0	0	0	0	0	0	0
19.62015312	-395.9088103	4.848484573e-14	0	0	0	0	0	0	0
19.62075138	-395.5863961	4.844536138e-14	0	0	0	0	0	0	0
19.62134963	-395.263547	4.840582377e-14	0	0	0	0	0	0	0
19.62217233	-394.8188537	4.835136454e-14	0	0	0	0	0	0	0
19.62268127	-394.5433406	4.831762392e-14	0	0	0	0	0	0	0
19.62319021	-394.2675097	4.828384437e-14	0	0	0	0	0	0	0
19.62384665	-393.911269	4.824021747e-14	0	0	0	0	0	0	0
19.62450309	-393.5545004	4.819652592e-14	0	0	0	0	0	0	0
19.62515953	-393.1972043	4.815276977e-14	0	0	0	0	0	0	0
19.62581597	-392.8393813	4.810894909e-14	0	0	0	0	0	0	0
19.62633231	-392.5575564	4.807443549e-14	0	0	0	0	0	0	0
19.62684866	-392.2754004	4.803988135e-14	0	0	0	0	0	0	0
19.6274878	-391.9256963	4.799705494e-14	0	0	0	0	0	0	0
19.62822159	-391.5235906	4.79478112e-14	0	0	0	0	0	0	0
19.62895538	-391.1208292	4.789848716e-14	0	0	0	0	0	0	0
19.62968916	-390.7174183	4.784908358e-14	0	0	0	0	0	0	0
19.63	-390.5463303	4.782813133e-14	0	0	0	0	0	0	0
19.63000178	-390.5453502	4.78280113e-14	0	0	0	0	0	0	0
19.63000357	-390.5443646	4.782789061e-14	0	0	0	0	0	0	0
19.63001249	-390.5394532	4.782728913e-14	0	0	0	0	0	0	0
19.6300571	-390.5148893	4.782428092e-14	0	0	0	0	0	0	0
19.63028017	-390.3920225	4.780923408e-14	0	0	0	0	0	0	0
19.63104448	-389.9705831	4.775762264e-14	0	0	0	0	0	0	0
19.6318088	-389.5484296	4.770592375e-14	0	0	0	0	0	0	0
19.63246708	-389.1842775	4.766132797e-14	0	0	0	0	0	0	0
19.63312536	-388.8196008	4.761666795e-14	0	0	0	0	0	0	0
19.63378365	-388.4543945	4.757194309e-14	0	0	0	0	0	0	0
19.63444193	-388.0886703	4.752715479e-14	0	0	0	0	0	0	0
19.63510021	-387.722423	4.748230243e-14	0	0	0	0	0	0	0
19.6357585	-387.3556476	4.74373854e-14	0	0	0	0	0	0	0
19.63641678	-386.9883558	4.739240512e-14	0	0	0	0	0	0	0
19.63695407	-386.6881845	4.735564474e-14	0	0	0	0	0	0	0
19.63749137	-386.3876605	4.731884117e-14	0	0	0	0	0	0	0
19.63834098	-385.9117465	4.726055851e-14	0	0	0	0	0	0	0
19.63910384	-385.4836879	4.720813645e-14	0	0	0	0	0	0	0
19.63986671	-385.0549258	4.715562824e-14	0	0	0	0	0	0	0
19.64	-384.9799402	4.714644515e-14	0	0	0	0	0	0	0
19.64000284	-384.9783423	4.714624946e-14	0	0	0	0	0	0	0
19.64000568	-384.9767443	4.714605377e-14	0	0	0	0	0	0	0
19.64001988	-384.9687544	4.714507529e-14	0	0	0	0	0	0	0
19.64009089	-384.9287956	4.714018174e-14	0	0	0	0	0	0	0
19.64044592	-384.7289222	4.711570432e-14	0	0	0	0	0	0	0
19.64109758	-384.3616609	4.707072777e-14	0	0	0	0	0	0	0
19.64174923	-383.9938976	4.702568975e-14	0	0	0	0	0	0	0
19.64240089	-383.6256214	4.698058893e-14	0	0	0	0	0	0	0
19.64298419	-383.2955482	4.694016662e-14	0	0	0	0	0	0	0
19.64356749	-382.9650694	4.689969464e-14	0	0	0	0	0	0	0
19.64440838	-382.4879353	4.684126257e-14	0	0	0	0	0	0	0
19.64524926	-382.0099658	4.678272818e-14	0	0	0	0	0	0	0
19.64609014	-381.5311562	4.672409092e-14	0	0	0	0	0	0	0
19.64693102	-381.0515075	4.66653509e-14	0	0	0	0	0	0	0
19.64760246	-380.6679079	4.661837349e-14	0	0	0	0	0	0	0
19.6482739	-380.2837745	4.657133072e-14	0	0	0	0	0	0	0
19.64894533	-379.8991136	4.652422335e-14	0	0	0	0	0	0	0
19.64961677	-379.5139143	4.647705004e-14	0	0	0	0	0	0	0
19.65	-379.29382	4.645009626e-14	0	0	0	0	0	0	0
19.65000146	-379.2929812	4.644999354e-14	0	0	0	0	0	0	0
19.65000291	-379.2921481	4.644989151e-14	0	0	0	0	0	0	0
19.6500102	-379.2879597	4.644937858e-14	0	0	0	0	0	0	0
19.65004664	-379.2670222	4.644681448e-14	0	0	0	0	0	0	0
19.65022881	-379.1623287	4.643399322e-14	0	0	0	0	0	0	0
19.65069507	-378.8941897	4.640115567e-14	0	0	0	0	0	0	0
19.65116133	-378.6257946	4.636828674e-14	0	0	0	0	0	0	0
19.65179517	-378.2605242	4.632355402e-14	0	0	0	0	0	0	0
19.65242901	-377.8947811	4.627876341e-14	0	0	0	0	0	0	0
19.65333478	-377.3713077	4.62146564e-14	0	0	0	0	0	0	0
19.65408332	-376.9379757	4.616158854e-14	0	0	0	0	0	0	0
19.65483185	-376.5039926	4.610844095e-14	0	0	0	0	0	0	0
19.65546642	-376.1355675	4.606332188e-14	0	0	0	0	0	0	0
19.656101	-375.7666654	4.601814441e-14	0	0	0	0	0	0	0
19.65673557	-375.3972986	4.597291001e-14	0	0	0	0	0	0	0
19.65737015	-375.0274558	4.592761733e-14	0	0	0	0	0	0	0
19.6581489	-374.5729467	4.587195602e-14	0	0	0	0	0	0	0
19.65892765	-374.1177311	4.581620819e-14	0	0	0	0	0	0	0
19.65970641	-373.661804	4.576037323e-14	0	0	0	0	0	0	0
19.66	-373.489738	4.573930122e-14	0	0	0	0	0	0	0
19.66000151	-373.4888528	4.573919281e-14	0	0	0	0	0	0	0
19.66000303	-373.4879617	4.573908368e-14	0	0	0	0	0	0	0
19.66001059	-373.4835296	4.573854091e-14	0	0	0	0	0	0	0
19.66004842	-373.4613506	4.573582476e-14	0	0	0	0	0	0	0
19.66023756	-373.3504366	4.572224171e-14	0	0	0	0	0	0	0
19.66076054	-373.0435384	4.568465752e-14	0	0	0	0	0	0	0
19.66128352	-372.7363228	4.564703447e-14	0	0	0	0	0	0	0
19.66197064	-372.3322042	4.559754421e-14	0	0	0	0	0	0	0
19.66265777	-371.927533	4.554798628e-14	0	0	0	0	0	0	0
19.66342264	-371.476436	4.549274283e-14	0	0	0	0	0	0	0
19.66418752	-371.0246573	4.543741589e-14	0	0	0	0	0	0	0
19.66433852	-370.9353888	4.542648366e-14	0	0	0	0	0	0	0
19.66454248	-370.8147697	4.541171207e-14	0	0	0	0	0	0	0
19.66456285	-370.8027205	4.541023647e-14	0	0	0	0	0	0	0
19.66456852	-370.7993665	4.540982573e-14	0	0	0	0	0	0	0
19.66457419	-370.7960125	4.540941498e-14	0	0	0	0	0	0	0
19.66460256	-370.77923	4.540735972e-14	0	0	0	0	0	0	0
19.66474436	-370.6953333	4.539708534e-14	0	0	0	0	0	0	0
19.6654534	-370.2754785	4.534566795e-14	0	0	0	0	0	0	0
19.66616243	-369.8550507	4.52941804e-14	0	0	0	0	0	0	0
19.66687147	-369.4340386	4.524262129e-14	0	0	0	0	0	0	0
19.66742706	-369.1037381	4.520217114e-14	0	0	0	0	0	0	0
19.66808294	-368.7133586	4.515436345e-14	0	0	0	0	0	0	0
19.66873883	-368.3224799	4.510649461e-14	0	0	0	0	0	0	0
19.6695465	-367.8404707	4.504746551e-14	0	0	0	0	0	0	0
19.67	-367.5694993	4.501428108e-14	0	0	0	0	0	0	0
19.67000163	-367.568525	4.501416176e-14	0	0	0	0	0	0	0
19.67000326	-367.5675506	4.501404243e-14	0	0	0	0	0	0	0
19.6700114	-367.5626847	4.501344653e-14	0	0	0	0	0	0	0
19.67005213	-367.538336	4.501046467e-14	0	0	0	0	0	0	0
19.67025576	-367.4165761	4.499555339e-14	0	0	0	0	0	0	0
19.6706576	-367.1761583	4.496611069e-14	0	0	0	0	0	0	0
19.67115159	-366.8803551	4.492988525e-14	0	0	0	0	0	0	0
19.671781	-366.5030585	4.488367975e-14	0	0	0	0	0	0	0
19.67255822	-366.036535	4.482654709e-14	0	0	0	0	0	0	0
19.67333544	-365.5693237	4.476933022e-14	0	0	0	0	0	0	0
19.67411266	-365.1014257	4.471202923e-14	0	0	0	0	0	0	0
19.67488988	-364.6328417	4.465464424e-14	0	0	0	0	0	0	0
19.67496016	-364.5904363	4.464945108e-14	0	0	0	0	0	0	0
19.67497716	-364.580178	4.46481948e-14	0	0	0	0	0	0	0
19.67499415	-364.5699254	4.464693923e-14	0	0	0	0	0	0	0
19.67507912	-364.5186456	4.464065926e-14	0	0	0	0	0	0	0
19.67550396	-364.2621299	4.460924515e-14	0	0	0	0	0	0	0
19.67624223	-363.8158808	4.455459539e-14	0	0	0	0	0	0	0
19.67698051	-363.3690089	4.449986937e-14	0	0	0	0	0	0	0
19.67771878	-362.9215272	4.444506866e-14	0	0	0	0	0	0	0
19.67845706	-362.4734241	4.439019186e-14	0	0	0	0	0	0	0
19.67919534	-362.0247065	4.433523981e-14	0	0	0	0	0	0	0
19.67993361	-361.5753814	4.428021335e-14	0	0	0	0	0	0	0
19.68	-361.5349451	4.427526133e-14	0	0	0	0	0	0	0
19.68000204	-361.5337026	4.427510916e-14	0	0	0	0	0	0	0
19.68000407	-361.5324661	4.427495773e-14	0	0	0	0	0	0	0
19.68001425	-361.5262652	4.427419835e-14	0	0	0	0	0	0	0
19.68006513	-361.4952715	4.427040271e-14	0	0	0	0	0	0	0
19.68031954	-361.3402531	4.425141843e-14	0	0	0	0	0	0	0
